<svg width="9" height="9" viewBox="0 0 9 9" fill="none" xmlns="http://www.w3.org/2000/svg">
<path d="M4.5 0C8 0 9 1.455 9 3.25C9 5.045 8 6.5 4.5 6.5C1 6.5 0 5.045 0 3.25C0 1.455 1 0 4.5 0ZM2.25 4C2.665 4 3 3.665 3 3.25C3 2.835 2.665 2.5 2.25 2.5C1.835 2.5 1.5 2.835 1.5 3.25C1.5 3.665 1.835 4 2.25 4ZM4.5 4C4.915 4 5.25 3.665 5.25 3.25C5.25 2.835 4.915 2.5 4.5 2.5C4.085 2.5 3.75 2.835 3.75 3.25C3.75 3.665 4.085 4 4.5 4ZM6.75 4C7.165 4 7.5 3.665 7.5 3.25C7.5 2.835 7.165 2.5 6.75 2.5C6.335 2.5 6 2.835 6 3.25C6 3.665 6.335 4 6.75 4ZM2.5 6.75C2.915 6.75 3.25 7.085 3.25 7.5C3.25 7.915 2.915 8.25 2.5 8.25C2.085 8.25 1.75 7.915 1.75 7.5C1.75 7.085 2.085 6.75 2.5 6.75ZM1 7.75C1.275 7.75 1.5 7.975 1.5 8.25C1.5 8.525 1.275 8.75 1 8.75C0.725 8.75 0.5 8.525 0.5 8.25C0.5 7.975 0.725 7.75 1 7.75Z" fill="white" fill-opacity="0.9"/>
</svg>
