<svg width="16" height="17" viewBox="0 0 16 17" fill="none" xmlns="http://www.w3.org/2000/svg">
<path fill-rule="evenodd" clip-rule="evenodd" d="M5.64706 0.849999H4.70588V1.7H7.05882V2.55002H4.70588V3.43525C6.04127 3.63759 7.05882 4.68649 7.05882 5.95001V6.80001H1.41176V5.95001C1.41176 4.68649 2.42932 3.63759 3.76471 3.43525V2.55002H2.7432C2.54941 3.04519 2.02645 3.40002 1.41176 3.40002C0.632071 3.40002 0 2.82916 0 2.125C0 1.42084 0.632071 0.849999 1.41176 0.849999C2.02645 0.849999 2.54941 1.20479 2.7432 1.7H3.76471V0.849999H2.82353V0H5.64706V0.849999ZM1.41176 7.65001V16.575C1.41176 16.8097 1.62245 17 1.88235 17H6.58824C6.84814 17 7.05882 16.8097 7.05882 16.575V7.65001H1.41176ZM1.41176 1.7C1.15187 1.7 0.941176 1.89028 0.941176 2.125C0.941176 2.35972 1.15187 2.55002 1.41176 2.55002C1.67167 2.55002 1.88235 2.35972 1.88235 2.125C1.88235 1.89028 1.67167 1.7 1.41176 1.7ZM8.94118 7.22501C8.94118 6.2861 9.78395 5.52501 10.8235 5.52501C11.8631 5.52501 12.7059 6.2861 12.7059 7.22501V9.77501C12.7059 10.7139 11.8631 11.475 10.8235 11.475C9.78395 11.475 8.94118 10.7139 8.94118 9.77501V7.22501ZM10.8235 6.37501C10.3037 6.37501 9.88235 6.75556 9.88235 7.22501V9.77501C9.88235 10.2444 10.3037 10.625 10.8235 10.625C11.3433 10.625 11.7647 10.2444 11.7647 9.77501V7.22501C11.7647 6.75556 11.3433 6.37501 10.8235 6.37501ZM13.1765 9.35001H14.5882C14.8481 9.35001 15.0588 9.54028 15.0588 9.77501C15.0588 10.0097 14.8481 10.2 14.5882 10.2C13.8085 10.2 13.1765 10.7708 13.1765 11.475V12.325C13.1765 12.5597 13.3872 12.75 13.6471 12.75H16V11.9H14.1176V11.475C14.1176 11.2403 14.3283 11.05 14.5882 11.05C15.368 11.05 16 10.4791 16 9.77501C16 9.07083 15.368 8.50001 14.5882 8.50001H13.1765V9.35001Z" fill="white"/>
</svg>
