<svg width="31" height="42" viewBox="0 0 31 42" fill="none" xmlns="http://www.w3.org/2000/svg">
<g opacity="0.5" filter="url(#filter0_f_244_84)">
<path d="M21.117 6.29649C21.695 5.7841 22.5548 6.43994 22.2083 7.12891L17.3512 16.7862C17.161 17.1645 17.3476 17.6219 17.7481 17.7586L23.9918 19.89C24.4797 20.0565 24.6235 20.6746 24.2597 21.0415L10.3859 35.03C9.81901 35.6016 8.8937 34.9298 9.26725 34.2179L14.5637 24.1242C14.7627 23.7449 14.5774 23.2794 14.1723 23.1411L6.60033 20.5563C6.09362 20.3833 5.96369 19.7297 6.36525 19.3737L21.117 6.29649Z" fill="white"/>
</g>
<path d="M21.117 6.29649C21.695 5.7841 22.5548 6.43994 22.2083 7.12891L17.3512 16.7862C17.161 17.1645 17.3476 17.6219 17.7481 17.7586L23.9918 19.89C24.4797 20.0565 24.6235 20.6746 24.2597 21.0415L10.3859 35.03C9.81901 35.6016 8.8937 34.9298 9.26725 34.2179L14.5637 24.1242C14.7627 23.7449 14.5774 23.2794 14.1723 23.1411L6.60033 20.5563C6.09362 20.3833 5.96369 19.7297 6.36525 19.3737L21.117 6.29649Z" fill="white"/>
<defs>
<filter id="filter0_f_244_84" x="0.128601" y="0.113525" width="30.3349" height="41.1313" filterUnits="userSpaceOnUse" color-interpolation-filters="sRGB">
<feFlood flood-opacity="0" result="BackgroundImageFix"/>
<feBlend mode="normal" in="SourceGraphic" in2="BackgroundImageFix" result="shape"/>
<feGaussianBlur stdDeviation="3" result="effect1_foregroundBlur_244_84"/>
</filter>
</defs>
</svg>
