<svg width="453" height="134" viewBox="0 0 453 134" fill="none" xmlns="http://www.w3.org/2000/svg">
<path d="M29.0385 134L0 124.477V9.52284L28.0705 0H99.6987L133.577 12.9239H321.359L352.333 0H424.93L453 9.52284V124.477L424.93 134L390.083 120.396H62.9167L29.0385 134Z" fill="#131313"/>
<path d="M37.0128 125L9 116.543V14.4569L36.0791 6H105.177L137.859 17.4772H319.009L348.889 6H418.921L446 14.4569V116.543L418.921 125L385.306 112.919H69.6944L37.0128 125Z" fill="#0A0A0A"/>
<path d="M105.312 6H36.3125L101 8.78906L131.188 19.9453H325.25L352.562 8.78906L418.688 6H348.25L319.5 17.6211L136.938 17.1562L105.312 6Z" fill="#083943"/>
<path d="M69.375 112.914L27.6875 122.211L37.75 125L69.375 112.914Z" fill="#083943"/>
<path d="M418.688 125L385.625 112.914L427.312 122.211L418.688 125Z" fill="#083943"/>
<path d="M438 81.5806L446 90V32L438 40.4194V81.5806Z" fill="#131313"/>
<path d="M17 41.4194L9 33L8.99998 91L17 82.5806L17 41.4194Z" fill="#131313"/>
</svg>
